<svg xmlns="http://www.w3.org/2000/svg" viewBox="0 0 96 24.07"><defs><style>.cls-1{fill:#ff6200;}</style></defs><title>mini-title</title><g id="Layer_2" data-name="Layer 2"><g id="Layer_1-2" data-name="Layer 1"><path class="cls-1" d="M12.54,21.94c-.56.08-.78.92-1.42.51a2.64,2.64,0,0,1-.82-1.32,10.37,10.37,0,0,1-.24-4.88c.21-1.64.75-3.69,0-5.26s-2.51-1.09-3.56-.24a11.5,11.5,0,0,0-2.81,4.47.32.32,0,0,1-.6-.11,16.42,16.42,0,0,1,.28-2.8,2.67,2.67,0,0,1,.41-1.49c.41-.51,1-.88,1.45-1.39A15.56,15.56,0,0,0,7.58,5.95a8.76,8.76,0,0,0,.56-1.67A6.63,6.63,0,0,0,8.4,1.7c-.13-.55,0-1-.48-1.39A1.79,1.79,0,0,0,6.35.08C5.14.44,4.39,1.8,3.7,2.75A20.57,20.57,0,0,0,.44,10.94a19.72,19.72,0,0,0-.37,5.51C.23,18,1.22,19.81,3.11,19c1.34-.57,1.56-1.73,1.94-3,.21-.69.62-1.35.89-2s.47-1.11.74-1.64c.16-.3.51-1.06.91-1.11.24,0,.14,0,.15.21a4.08,4.08,0,0,1-.27,1.11,36.67,36.67,0,0,0-1,4.48c-.25,1.95-.22,4.47,1.2,6a3.13,3.13,0,0,0,3.11.91,3.6,3.6,0,0,0,1.71-1.13C12.67,22.64,13.12,21.86,12.54,21.94ZM3.84,8.22a13.09,13.09,0,0,1,.49-1.75C4.58,5.77,4.7,5,5,4.35s.52-1.19.83-1.75a8.5,8.5,0,0,1,.73-1,.37.37,0,0,1,.67.2A7.26,7.26,0,0,1,7.1,3.06a9.53,9.53,0,0,1-.78,2.31,11.59,11.59,0,0,1-2,3.41.33.33,0,0,1-.55-.32C3.81,8.38,3.83,8.3,3.84,8.22Z"/><path class="cls-1" d="M44.84,9.79a14.9,14.9,0,0,1-1,1.41,3.36,3.36,0,0,1-1.49.87c-.39.12-.91.41-1.06-.07a2.49,2.49,0,0,1,0-.45,3.73,3.73,0,0,0-.24-.91,3,3,0,0,0-2.2-2.16,3.26,3.26,0,0,0-2.71,1.29,2.14,2.14,0,0,0-.5,1.54,2.84,2.84,0,0,1,0,.82c-.08.41-.21.81-.31,1.21a20.93,20.93,0,0,1-1,3.58,4.34,4.34,0,0,1-.86,1.28c-.53.53-.67.12-1-.35a8.29,8.29,0,0,1-1.28-3.5c-.18-1-.41-2.54.15-3.47s1.28-1.75,1.78-2.74a31.25,31.25,0,0,0,1.21-3.6A4,4,0,0,0,34,1.21c-.59-.92-2.08-.33-2.74.23a7.41,7.41,0,0,0-1.56,2.63,23.13,23.13,0,0,0-2.14,7.46,13.63,13.63,0,0,0,0,1.76c0,.59.24,1.23.23,1.81a5.2,5.2,0,0,1-.44,1.47A4.71,4.71,0,0,1,26.49,18c-.42.48-.58.57-1,.08a5.13,5.13,0,0,1-.89-1.59,12.71,12.71,0,0,1-.76-3.74,3.93,3.93,0,0,1,.18-1.71,9.28,9.28,0,0,1,.82-1.15A11.46,11.46,0,0,0,26.5,6.66c.33-1.19,1-2.47.89-3.72C27.31,2.06,27,.73,26,.74a3,3,0,0,0-2.53,1.63A22.2,22.2,0,0,0,21.94,5.7a29.25,29.25,0,0,0-1.16,3.68,22.38,22.38,0,0,0-.36,3.82A6.41,6.41,0,0,1,19,16.14c-.47.61-1.79,1.77-2.61,1.2a3.93,3.93,0,0,1-1.3-2.83c0-.14-.06-.67.05-.77s.7,0,.85-.06A1.92,1.92,0,0,0,17.29,13c1-1.21,1.47-4.72-.61-5.11s-3.79,1.77-4.5,3.53a6.59,6.59,0,0,0,.58,6.55,3.63,3.63,0,0,0,2.61,1.6,4.79,4.79,0,0,0,3.24-1.26,11.18,11.18,0,0,0,2.12-2.7c.35,1.82,1,4.88,3.32,5.09s3.51-1.64,4.23-3.38c.46,1.52,1.38,3.42,3.22,3.39A4.19,4.19,0,0,0,35,18.25a2.81,2.81,0,0,0,3.8,1.31c1.77-.67,2.36-3,2.46-4.69,0-.31,0-.84.23-1.08s.65-.25.92-.37a7.8,7.8,0,0,0,2.36-1.6,3.92,3.92,0,0,0,1.11-1.71C46.08,9.26,45.29,9.18,44.84,9.79ZM15,12.4a15.61,15.61,0,0,1,.87-2.77c.12-.33.25-.78.58-1s.43.13.45.46a4.34,4.34,0,0,1-.61,2.54C16.14,11.92,14.84,13.32,15,12.4Zm9.45-6.65a16.34,16.34,0,0,1,.91-3.65c.36-.77.48.45.51.75a9.32,9.32,0,0,1-1.59,5.86.29.29,0,0,1-.53-.19C23.86,7.58,24.25,6.67,24.44,5.75Zm7.14,0a16.34,16.34,0,0,1,.91-3.65c.36-.77.48.45.51.75a9.31,9.31,0,0,1-1.53,5.77.32.32,0,0,1-.57-.22C31,7.5,31.4,6.63,31.58,5.75Zm7.83,8.7A11.46,11.46,0,0,1,39,16.54c-.08.26-.15.61-.27.93a.37.37,0,0,1-.69,0,10.89,10.89,0,0,1-.22-3.28c0-.62.1-.57.66-.41S39.49,13.74,39.41,14.45Zm.1-2.23c-.19.22-.8,0-.93-.21s0-.59-.46-.77-.66,0-.61-.48A1.89,1.89,0,0,1,38,9.92c.12-.16.4-.61.59-.64.44-.07.57.82.64,1.11S39.8,11.89,39.52,12.22Z"/><path class="cls-1" d="M63.82,21.94c-.56.08-.78.92-1.42.51a2.64,2.64,0,0,1-.82-1.32,10.37,10.37,0,0,1-.24-4.88c.21-1.64.75-3.69,0-5.26s-2.51-1.1-3.56-.24A11.19,11.19,0,0,0,55,15.1a.35.35,0,0,1-.66-.12,18.81,18.81,0,0,1,.29-2.67,2.67,2.67,0,0,1,.41-1.49c.41-.51,1-.88,1.45-1.39a15.56,15.56,0,0,0,2.33-3.49,8.75,8.75,0,0,0,.56-1.66,6.64,6.64,0,0,0,.26-2.58c-.13-.55,0-1-.48-1.39A1.79,1.79,0,0,0,57.64.08c-1.21.35-2,1.71-2.65,2.67a20.58,20.58,0,0,0-3.26,8.19,19.72,19.72,0,0,0-.37,5.51c.16,1.59,1.16,3.36,3,2.56,1.34-.57,1.56-1.73,1.94-3,.21-.69.62-1.35.89-2s.47-1.11.74-1.64c.16-.3.51-1.06.91-1.11.24,0,.14,0,.15.21a4.08,4.08,0,0,1-.27,1.11,36.67,36.67,0,0,0-1,4.48c-.25,1.95-.22,4.47,1.2,6A3.13,3.13,0,0,0,62.1,24a3.6,3.6,0,0,0,1.71-1.13C64,22.64,64.4,21.86,63.82,21.94ZM55.11,8.31a16.54,16.54,0,0,1,.47-1.72c.27-.74.39-1.52.7-2.24s.52-1.19.83-1.75a9.11,9.11,0,0,1,.76-1.07.36.36,0,0,1,.64.19,7,7,0,0,1-.12,1.33,9.52,9.52,0,0,1-.78,2.31,10.89,10.89,0,0,1-2.15,3.56A.27.27,0,0,1,55,8.66C55,8.54,55.08,8.42,55.11,8.31Z"/><path class="cls-1" d="M90.2,7.41c.37,0,.61,0,.81-.26a1.2,1.2,0,0,0,.13-1c-.15-.49-.49-.93-1.07-.83a1.18,1.18,0,0,0-1.25.88C88.6,7,89.57,7.34,90.2,7.41Z"/><path class="cls-1" d="M94.72,9.32a2.76,2.76,0,0,0-.51,1.11,14.74,14.74,0,0,1-.64,1.45,49.31,49.31,0,0,1-2.28,4.62.56.56,0,0,1-.27.3,6.59,6.59,0,0,1-.21-2.72c.08-.71,0-1.39.07-2.1,0-.48,0-1,0-1.44a3.21,3.21,0,0,0,0-1.19,1.55,1.55,0,0,0-1.38-1,1.44,1.44,0,0,0-.81.1c-.21.13-.31.49-.43.71a9,9,0,0,0-.67,2A12.08,12.08,0,0,0,87.09,15a2.47,2.47,0,0,1-.08.81,5.13,5.13,0,0,1-1.41,2.56c-.36.36-.45.07-.66-.22a5.48,5.48,0,0,1-.54-.73,12.06,12.06,0,0,1-.62-1.75,9.93,9.93,0,0,1-.46-4c.05-.81.68-1.21,1.07-1.88s.77-1.19,1.07-1.84c.48-1,1.92-4.48,1.13-6-.25-.47-.33-1.1-.93-1.2a2.79,2.79,0,0,0-1.6.34c-1,.48-1.35,1.51-1.82,2.44a31.3,31.3,0,0,0-1.46,3.72A14.9,14.9,0,0,0,80,15.09v0a6,6,0,0,1-1.59,3.23c-.36.36-.45.07-.66-.22a5.48,5.48,0,0,1-.54-.73,12.06,12.06,0,0,1-.62-1.75,9.93,9.93,0,0,1-.46-4c.05-.81.68-1.21,1.07-1.88s.68-1.24,1.07-1.84c2.09-3.21,1.44-5,1.13-6-.16-.51-.33-1.1-.93-1.2a2.79,2.79,0,0,0-1.6.34c-1,.48-1.35,1.51-1.82,2.44a31.3,31.3,0,0,0-1.46,3.72,15.1,15.1,0,0,0-.8,7.6h0c-.08.29-.16.57-.22.86a12,12,0,0,1-.53,1.69,2.55,2.55,0,0,1-.54,1,9.43,9.43,0,0,1-1.06-3.28c0-.33-.15-.65-.16-1s.05-.46,0-.7A1.59,1.59,0,0,0,69.73,12a1.09,1.09,0,0,0-.82-.2c-.25.08-.45.45-.62.69s-.43.57-.65.85c-.39.48-.75,1-1.16,1.48a.3.3,0,0,1-.52-.21,10,10,0,0,1,.17-1.23,9.78,9.78,0,0,1,.47-1.61c.26-.72.67-2,1.38-2.39.5-.23.45.5.6.78a.94.94,0,0,0,1.06.48c1.18-.36-.2-2.1-.75-2.47-1.06-.73-2.45.16-3.3.76a7.24,7.24,0,0,0-2.18,2.72,6.8,6.8,0,0,0-.94,3.5c0,.83.37,2,1.28,2.25s2.43.17,3.07-.65c.31-.4.41-.9.74-1.29.16-.19.33-.37.5-.55a12.35,12.35,0,0,0,.43,3.83A2.31,2.31,0,0,0,71,20.58c1.67-.05,2.14-1.54,2.57-2.9a6.41,6.41,0,0,0,1.19,2.16c1.57,1.8,4.39.4,5.31-1.41.19-.37.36-.75.52-1.14a6.75,6.75,0,0,0,1.32,2.55c1.57,1.8,4.39.4,5.31-1.41.21-.41.39-.83.56-1.25a2.92,2.92,0,0,0,2.7,1.09,2.42,2.42,0,0,0,2-1,12.38,12.38,0,0,0,1.08-1.66,38.79,38.79,0,0,0,1.65-3.65c.16-.4.34-.79.48-1.2A3.94,3.94,0,0,0,96,9.67C96,9.09,95.09,9,94.72,9.32Zm-18-3.57c.12-.58.23-1.12.32-1.71a15,15,0,0,1,.6-1.94c.38-.95.52.72.52,1A9.6,9.6,0,0,1,78,5.23a15.35,15.35,0,0,1-.86,2.31,6.07,6.07,0,0,1-.63,1.17A.29.29,0,0,1,76,8.5C76.13,7.57,76.51,6.63,76.69,5.75Zm7.14,0c.12-.58.23-1.12.32-1.71a15,15,0,0,1,.6-1.94c.38-.95.52.72.52,1a9.6,9.6,0,0,1-.12,2.16,15.35,15.35,0,0,1-.86,2.31,6.09,6.09,0,0,1-.64,1.19.28.28,0,0,1-.52-.19C83.27,7.59,83.65,6.64,83.84,5.75Z"/></g></g></svg>